<svg width="158" height="68" viewBox="0 0 158 68" fill="none" xmlns="http://www.w3.org/2000/svg">
<g clip-path="url(#clip0_9006_1191)">
<g filter="url(#filter0_d_9006_1191)">
<rect width="158" height="68" rx="12" fill="white"/>
</g>
<path d="M10.5859 21H12.0605V18.7783H13.418C14.9023 18.7783 15.8936 17.8213 15.8936 16.3711V16.3613C15.8936 14.9111 14.9023 13.9541 13.418 13.9541H10.5859V21ZM13.0566 15.1211C13.9014 15.1211 14.3994 15.5654 14.3994 16.3662V16.376C14.3994 17.1768 13.9014 17.626 13.0566 17.626H12.0605V15.1211H13.0566ZM17.8613 21.083C18.5498 21.083 19.1064 20.7559 19.4043 20.2188H19.4336V21H20.8594V17.4111C20.8594 16.3564 19.9854 15.6582 18.6328 15.6582C17.251 15.6582 16.4209 16.3516 16.3428 17.3184L16.3379 17.377H17.6416L17.6514 17.333C17.7197 16.9961 18.042 16.7471 18.5742 16.7471C19.1309 16.7471 19.4336 17.0352 19.4336 17.499V17.8213L18.1396 17.8994C16.8408 17.9824 16.1035 18.5391 16.1035 19.4912V19.501C16.1035 20.4238 16.8115 21.083 17.8613 21.083ZM17.5146 19.4277V19.418C17.5146 19.0469 17.8027 18.8125 18.3545 18.7783L19.4336 18.71V19.0859C19.4336 19.6328 18.9648 20.043 18.3252 20.043C17.832 20.043 17.5146 19.8135 17.5146 19.4277ZM22.5732 22.7236C23.7354 22.7236 24.4385 22.3281 24.8486 21.0928L26.6455 15.7656H25.1416L24.0332 19.8574H23.9941L22.8906 15.7656H21.3232L23.1738 21L23.1104 21.1709C22.9834 21.5273 22.749 21.6494 22.3242 21.6494C22.1143 21.6494 21.9482 21.6201 21.8457 21.6006V22.6602C22.0117 22.6895 22.2949 22.7236 22.5732 22.7236ZM27.1436 21H28.5693V17.8408C28.5693 17.25 28.9355 16.8398 29.4775 16.8398C30.0049 16.8398 30.3223 17.1719 30.3223 17.7334V21H31.6943V17.8164C31.6943 17.2354 32.0508 16.8398 32.5928 16.8398C33.1445 16.8398 33.4473 17.1719 33.4473 17.7773V21H34.873V17.4209C34.873 16.3662 34.1846 15.6582 33.1592 15.6582C32.3926 15.6582 31.7676 16.0781 31.5332 16.7373H31.5039C31.3281 16.0488 30.7959 15.6582 30.0635 15.6582C29.3604 15.6582 28.8135 16.0488 28.5986 16.6445H28.5693V15.7656H27.1436V21ZM38.1592 21.1074C39.6533 21.1074 40.376 20.2236 40.5371 19.4521L40.5518 19.3984H39.2432L39.2334 19.4277C39.1309 19.7207 38.7744 20.043 38.1885 20.043C37.4609 20.043 37.0068 19.5547 36.9922 18.7197H40.5957V18.2803C40.5957 16.6982 39.6338 15.6582 38.1006 15.6582C36.5674 15.6582 35.5859 16.7227 35.5859 18.3877V18.3926C35.5859 20.0674 36.5576 21.1074 38.1592 21.1074ZM38.125 16.7227C38.7158 16.7227 39.1406 17.0986 39.2285 17.8213H37.0068C37.0996 17.1133 37.5391 16.7227 38.125 16.7227ZM41.333 21H42.7588V17.9922C42.7588 17.3086 43.1641 16.8398 43.8037 16.8398C44.4434 16.8398 44.7656 17.2305 44.7656 17.9141V21H46.1914V17.6211C46.1914 16.3955 45.5371 15.6582 44.3848 15.6582C43.5938 15.6582 43.0566 16.0244 42.7881 16.625H42.7588V15.7656H41.333V21ZM49.1748 21.1074C49.4727 21.1074 49.7021 21.0781 49.8633 21.0537V20.0088C49.7754 20.0186 49.6826 20.0332 49.5557 20.0332C49.126 20.0332 48.9062 19.8672 48.9062 19.3789V16.8398H49.8633V15.7656H48.9062V14.4863H47.4658V15.7656H46.7383V16.8398H47.4658V19.5352C47.4658 20.6582 48.0127 21.1074 49.1748 21.1074Z" fill="#6B7280"/>
<path d="M144 13.5V20.5M140.5 17H147.5" stroke="#2FA2B9" stroke-width="1.5" stroke-linecap="round" stroke-linejoin="round"/>
<path fill-rule="evenodd" clip-rule="evenodd" d="M19.5459 53.8864H26.622V41.1136H19.5459V53.8864Z" fill="#FF5F00"/>
<path fill-rule="evenodd" clip-rule="evenodd" d="M19.9952 47.5002C19.9952 44.9089 21.2031 42.601 23.084 41.1137C21.7083 40.0259 19.9728 39.377 18.0863 39.377C13.6203 39.377 10 43.0139 10 47.5002C10 51.9864 13.6203 55.6234 18.0863 55.6234C19.9728 55.6234 21.7083 54.9744 23.084 53.8866C21.2031 52.3991 19.9952 50.0915 19.9952 47.5002Z" fill="#EB001B"/>
<path fill-rule="evenodd" clip-rule="evenodd" d="M35.9155 52.5336V52.2184H35.8335L35.7394 52.4352L35.645 52.2184H35.563V52.5336H35.6208V52.2958L35.7093 52.5009H35.7692L35.8577 52.2953V52.5336H35.9155ZM35.3963 52.5336V52.2721H35.5015V52.2188H35.2342V52.2721H35.3391V52.5336H35.3963ZM36.168 47.4999C36.168 51.9862 32.5475 55.6231 28.0817 55.6231C26.1952 55.6231 24.4594 54.9742 23.084 53.8863C24.9649 52.3991 26.1727 50.0912 26.1727 47.4999C26.1727 44.9088 24.9649 42.6009 23.084 41.1135C24.4594 40.0257 26.1952 39.3767 28.0817 39.3767C32.5475 39.3767 36.168 43.0136 36.168 47.4999Z" fill="#F79E1B"/>
<path d="M50.6221 46.9414H51.75L51.6748 45.4033L52.9053 46.21L53.4863 45.3213L52.085 44.5762L53.4863 43.8379L52.9121 42.9492L51.6748 43.7559L51.75 42.2246H50.6221L50.6973 43.7559L49.4668 42.9492L48.8857 43.8379L50.2939 44.583L48.8857 45.3281L49.4668 46.2168L50.6973 45.4102L50.6221 46.9414ZM56.8018 46.9414H57.9297L57.8545 45.4033L59.085 46.21L59.666 45.3213L58.2646 44.5762L59.666 43.8379L59.0918 42.9492L57.8545 43.7559L57.9297 42.2246H56.8018L56.877 43.7559L55.6465 42.9492L55.0654 43.8379L56.4736 44.583L55.0654 45.3281L55.6465 46.2168L56.877 45.4102L56.8018 46.9414ZM62.9814 46.9414H64.1094L64.0342 45.4033L65.2646 46.21L65.8457 45.3213L64.4443 44.5762L65.8457 43.8379L65.2715 42.9492L64.0342 43.7559L64.1094 42.2246H62.9814L63.0566 43.7559L61.8262 42.9492L61.2451 43.8379L62.6533 44.583L61.2451 45.3281L61.8262 46.2168L63.0566 45.4102L62.9814 46.9414ZM69.1611 46.9414H70.2891L70.2139 45.4033L71.4443 46.21L72.0254 45.3213L70.624 44.5762L72.0254 43.8379L71.4512 42.9492L70.2139 43.7559L70.2891 42.2246H69.1611L69.2363 43.7559L68.0059 42.9492L67.4248 43.8379L68.833 44.583L67.4248 45.3281L68.0059 46.2168L69.2363 45.4102L69.1611 46.9414ZM78.7725 52H80.502V42.1357H78.7588L76.1816 43.9473V45.5674L78.7314 43.8174H78.7725V52ZM86.4492 41.9648C84.3232 41.9648 82.7578 43.3936 82.7578 45.3828V45.3965C82.7578 47.249 84.0977 48.6162 85.998 48.6162C87.3311 48.6162 88.3154 47.9326 88.7051 47.0303H88.7461C88.7461 47.1396 88.7393 47.2422 88.7324 47.3447C88.6641 49.2109 88.001 50.7285 86.415 50.7285C85.5332 50.7285 84.9316 50.291 84.665 49.6143L84.6445 49.5527H82.8945L82.9082 49.6279C83.2158 51.1182 84.583 52.1709 86.4082 52.1709C88.9238 52.1709 90.4346 50.2227 90.4346 46.9619V46.9482C90.4346 43.4893 88.623 41.9648 86.4492 41.9648ZM86.4492 47.2559C85.3281 47.2559 84.4941 46.4561 84.4941 45.335V45.3213C84.4941 44.2549 85.376 43.4072 86.4697 43.4072C87.5771 43.4072 88.4385 44.2617 88.4385 45.3555V45.3623C88.4385 46.4629 87.5771 47.2559 86.4492 47.2559ZM95.4043 41.9648C93.2783 41.9648 91.7129 43.3936 91.7129 45.3828V45.3965C91.7129 47.249 93.0527 48.6162 94.9531 48.6162C96.2861 48.6162 97.2705 47.9326 97.6602 47.0303H97.7012C97.7012 47.1396 97.6943 47.2422 97.6875 47.3447C97.6191 49.2109 96.9561 50.7285 95.3701 50.7285C94.4883 50.7285 93.8867 50.291 93.6201 49.6143L93.5996 49.5527H91.8496L91.8633 49.6279C92.1709 51.1182 93.5381 52.1709 95.3633 52.1709C97.8789 52.1709 99.3896 50.2227 99.3896 46.9619V46.9482C99.3896 43.4893 97.5781 41.9648 95.4043 41.9648ZM95.4043 47.2559C94.2832 47.2559 93.4492 46.4561 93.4492 45.335V45.3213C93.4492 44.2549 94.3311 43.4072 95.4248 43.4072C96.5322 43.4072 97.3936 44.2617 97.3936 45.3555V45.3623C97.3936 46.4629 96.5322 47.2559 95.4043 47.2559ZM104.435 52.1709C106.848 52.1709 108.311 50.209 108.311 47.0713V47.0576C108.311 43.9199 106.848 41.9648 104.435 41.9648C102.015 41.9648 100.559 43.9199 100.559 47.0576V47.0713C100.559 50.209 102.015 52.1709 104.435 52.1709ZM104.435 50.7285C103.102 50.7285 102.336 49.3477 102.336 47.0713V47.0576C102.336 44.7812 103.102 43.4141 104.435 43.4141C105.761 43.4141 106.533 44.7812 106.533 47.0576V47.0713C106.533 49.3477 105.761 50.7285 104.435 50.7285Z" fill="#111827"/>
</g>
<defs>
<filter id="filter0_d_9006_1191" x="-30" y="-15" width="208" height="118" filterUnits="userSpaceOnUse" color-interpolation-filters="sRGB">
<feFlood flood-opacity="0" result="BackgroundImageFix"/>
<feColorMatrix in="SourceAlpha" type="matrix" values="0 0 0 0 0 0 0 0 0 0 0 0 0 0 0 0 0 0 127 0" result="hardAlpha"/>
<feOffset dx="-5" dy="10"/>
<feGaussianBlur stdDeviation="12.5"/>
<feComposite in2="hardAlpha" operator="out"/>
<feColorMatrix type="matrix" values="0 0 0 0 0.611765 0 0 0 0 0.639216 0 0 0 0 0.686275 0 0 0 0.08 0"/>
<feBlend mode="normal" in2="BackgroundImageFix" result="effect1_dropShadow_9006_1191"/>
<feBlend mode="normal" in="SourceGraphic" in2="effect1_dropShadow_9006_1191" result="shape"/>
</filter>
<clipPath id="clip0_9006_1191">
<rect width="158" height="68" fill="white"/>
</clipPath>
</defs>
</svg>
