<svg width="142" height="51" viewBox="0 0 142 51" fill="none" xmlns="http://www.w3.org/2000/svg">
<g clip-path="url(#clip0_9003_1186)">
<g filter="url(#filter0_d_9003_1186)">
<rect width="142" height="51" rx="8" fill="white"/>
<path d="M11.5859 22H14.2764C16.3906 22 17.6357 20.6865 17.6357 18.4502V18.4404C17.6357 16.209 16.3857 14.9541 14.2764 14.9541H11.5859V22ZM13.0605 20.7793V16.1699H14.1006C15.3945 16.1699 16.1318 16.9756 16.1318 18.4453V18.4551C16.1318 19.9785 15.4189 20.7793 14.1006 20.7793H13.0605ZM19.508 16.0918C19.9377 16.0918 20.2697 15.7549 20.2697 15.3496C20.2697 14.9443 19.9377 14.6074 19.508 14.6074C19.0783 14.6074 18.7463 14.9443 18.7463 15.3496C18.7463 15.7549 19.0783 16.0918 19.508 16.0918ZM18.7951 22H20.2209V16.7656H18.7951V22ZM21.4779 22H22.9037V19.0703C22.9037 18.3086 23.3139 17.8887 24.017 17.8887C24.2221 17.8887 24.4174 17.918 24.5346 17.9668V16.7119C24.4271 16.6826 24.2807 16.6582 24.1244 16.6582C23.5141 16.6582 23.0893 17.0342 22.933 17.6787H22.9037V16.7656H21.4779V22ZM27.6275 22.1074C29.1217 22.1074 29.8443 21.2236 30.0055 20.4521L30.0201 20.3984H28.7115L28.7018 20.4277C28.5992 20.7207 28.2428 21.043 27.6568 21.043C26.9293 21.043 26.4752 20.5547 26.4605 19.7197H30.0641V19.2803C30.0641 17.6982 29.1021 16.6582 27.5689 16.6582C26.0357 16.6582 25.0543 17.7227 25.0543 19.3877V19.3926C25.0543 21.0674 26.026 22.1074 27.6275 22.1074ZM27.5934 17.7227C28.1842 17.7227 28.609 18.0986 28.6969 18.8213H26.4752C26.568 18.1133 27.0074 17.7227 27.5934 17.7227ZM33.4939 22.1074C34.8904 22.1074 35.7938 21.2383 35.8621 20.0957V20.0664H34.534L34.5291 20.1104C34.4314 20.6377 34.075 20.9893 33.5037 20.9893C32.8006 20.9893 32.3611 20.4082 32.3611 19.3828V19.3779C32.3611 18.377 32.8006 17.7764 33.4988 17.7764C34.0896 17.7764 34.4363 18.1572 34.5242 18.6553L34.534 18.6992H35.8572V18.665C35.8035 17.5322 34.9002 16.6582 33.4793 16.6582C31.9119 16.6582 30.9109 17.6982 30.9109 19.373V19.3779C30.9109 21.0674 31.8973 22.1074 33.4939 22.1074ZM38.9307 22.1074C39.2285 22.1074 39.458 22.0781 39.6191 22.0537V21.0088C39.5312 21.0186 39.4385 21.0332 39.3115 21.0332C38.8818 21.0332 38.6621 20.8672 38.6621 20.3789V17.8398H39.6191V16.7656H38.6621V15.4863H37.2217V16.7656H36.4941V17.8398H37.2217V20.5352C37.2217 21.6582 37.7686 22.1074 38.9307 22.1074ZM43.1098 22H45.8002C47.9145 22 49.1596 20.6865 49.1596 18.4502V18.4404C49.1596 16.209 47.9096 14.9541 45.8002 14.9541H43.1098V22ZM44.5844 20.7793V16.1699H45.6244C46.9184 16.1699 47.6557 16.9756 47.6557 18.4453V18.4551C47.6557 19.9785 46.9428 20.7793 45.6244 20.7793H44.5844ZM52.6725 22.1074C54.1666 22.1074 54.8893 21.2236 55.0504 20.4521L55.065 20.3984H53.7564L53.7467 20.4277C53.6441 20.7207 53.2877 21.043 52.7018 21.043C51.9742 21.043 51.5201 20.5547 51.5055 19.7197H55.109V19.2803C55.109 17.6982 54.1471 16.6582 52.6139 16.6582C51.0807 16.6582 50.0992 17.7227 50.0992 19.3877V19.3926C50.0992 21.0674 51.0709 22.1074 52.6725 22.1074ZM52.6383 17.7227C53.2291 17.7227 53.6539 18.0986 53.7418 18.8213H51.5201C51.6129 18.1133 52.0523 17.7227 52.6383 17.7227ZM56.1463 23.709H57.5721V21.1064H57.6014C57.8846 21.7266 58.4754 22.1074 59.2225 22.1074C60.5311 22.1074 61.3416 21.082 61.3416 19.3828V19.3779C61.3416 17.6738 60.5311 16.6582 59.2029 16.6582C58.4607 16.6582 57.8895 17.0439 57.6063 17.6787H57.5721V16.7656H56.1463V23.709ZM58.7342 20.9258C58.0408 20.9258 57.5672 20.3301 57.5672 19.3877V19.3828C57.5672 18.4355 58.0408 17.8398 58.7342 17.8398C59.4422 17.8398 59.8914 18.4209 59.8914 19.3779V19.3828C59.8914 20.335 59.4422 20.9258 58.7342 20.9258ZM64.7861 22.1074C66.3682 22.1074 67.3789 21.0918 67.3789 19.3828V19.373C67.3789 17.6787 66.3486 16.6582 64.7812 16.6582C63.2188 16.6582 62.1934 17.6885 62.1934 19.373V19.3828C62.1934 21.0869 63.1943 22.1074 64.7861 22.1074ZM64.791 20.9893C64.0879 20.9893 63.6436 20.4082 63.6436 19.3828V19.373C63.6436 18.3623 64.0928 17.7764 64.7812 17.7764C65.4746 17.7764 65.9287 18.3623 65.9287 19.373V19.3828C65.9287 20.4033 65.4844 20.9893 64.791 20.9893ZM70.5695 22.1074C71.9172 22.1074 72.8596 21.4336 72.8596 20.4082V20.4033C72.8596 19.6318 72.4104 19.2021 71.3166 18.9727L70.4279 18.7822C69.9006 18.6699 69.7199 18.4941 69.7199 18.2256V18.2207C69.7199 17.8838 70.0275 17.6641 70.5207 17.6641C71.048 17.6641 71.3557 17.9473 71.4045 18.3232L71.4094 18.3623H72.7229V18.3135C72.6887 17.3955 71.9123 16.6582 70.5207 16.6582C69.1877 16.6582 68.3283 17.3027 68.3283 18.2988V18.3037C68.3283 19.085 68.841 19.5928 69.8566 19.8076L70.7453 19.9932C71.258 20.1055 71.4338 20.2666 71.4338 20.5449V20.5498C71.4338 20.8867 71.1066 21.0967 70.5695 21.0967C69.9982 21.0967 69.6906 20.8574 69.5979 20.4473L69.5881 20.4033H68.1965L68.2014 20.4473C68.3137 21.4385 69.1193 22.1074 70.5695 22.1074ZM74.6049 16.0918C75.0346 16.0918 75.3666 15.7549 75.3666 15.3496C75.3666 14.9443 75.0346 14.6074 74.6049 14.6074C74.1752 14.6074 73.8432 14.9443 73.8432 15.3496C73.8432 15.7549 74.1752 16.0918 74.6049 16.0918ZM73.892 22H75.3178V16.7656H73.892V22ZM78.6549 22.1074C78.9527 22.1074 79.1822 22.0781 79.3434 22.0537V21.0088C79.2555 21.0186 79.1627 21.0332 79.0357 21.0332C78.6061 21.0332 78.3863 20.8672 78.3863 20.3789V17.8398H79.3434V16.7656H78.3863V15.4863H76.9459V16.7656H76.2184V17.8398H76.9459V20.5352C76.9459 21.6582 77.4928 22.1074 78.6549 22.1074Z" fill="#111827"/>
<path d="M13.3906 37.0938C14.6797 37.0938 15.4727 36.4609 15.4727 35.4609V35.457C15.4727 34.5977 14.9883 34.1289 13.832 33.875L13.207 33.7383C12.4727 33.5781 12.1328 33.2891 12.1328 32.8281V32.8242C12.1328 32.2812 12.625 31.9219 13.3789 31.918C14.0938 31.918 14.5742 32.2578 14.6602 32.832L14.668 32.8867H15.3711L15.3672 32.8281C15.3047 31.9062 14.5 31.2695 13.3984 31.2695C12.2383 31.2695 11.418 31.918 11.4141 32.8438V32.8477C11.4141 33.6719 11.9297 34.168 13.0312 34.4102L13.6562 34.5469C14.4297 34.7188 14.7539 34.9961 14.7539 35.4922V35.4961C14.7539 36.0781 14.2422 36.4453 13.4297 36.4453C12.6133 36.4453 12.0664 36.0977 11.9844 35.5312L11.9766 35.4766H11.2734L11.2773 35.5312C11.3477 36.4961 12.1719 37.0938 13.3906 37.0938ZM17.8781 37.0781C18.4953 37.0781 18.9094 36.8008 19.1281 36.4219H19.1438V37H19.8234V32.9375H19.1438V35.3281C19.1438 36.0195 18.7258 36.4766 18.0852 36.4766C17.4602 36.4766 17.1516 36.1133 17.1516 35.4531V32.9375H16.4719V35.5742C16.4719 36.5 16.9875 37.0781 17.8781 37.0781ZM22.7289 38.4453C23.8305 38.4453 24.5219 37.8281 24.5219 36.8867V32.9375H23.8422V33.625H23.8266C23.5766 33.1719 23.1234 32.8594 22.5492 32.8594C21.518 32.8594 20.8109 33.6797 20.8109 34.9414V34.9453C20.8109 36.2148 21.5102 37.0391 22.5336 37.0391C23.1156 37.0391 23.5844 36.75 23.8266 36.3008H23.8422V36.8203C23.8422 37.4492 23.4359 37.8438 22.7211 37.8438C22.1664 37.8438 21.7797 37.6641 21.6508 37.3711L21.6352 37.3359H20.9516L20.9594 37.3711C21.0922 37.9727 21.725 38.4453 22.7289 38.4453ZM22.682 36.4375C21.9594 36.4375 21.5063 35.8672 21.5063 34.9453V34.9414C21.5063 34.0391 21.9594 33.4609 22.682 33.4609C23.3695 33.4609 23.8422 34.0469 23.8422 34.9414V34.9453C23.8422 35.8477 23.3734 36.4375 22.682 36.4375ZM27.3727 37.0781C28.2594 37.0781 28.9234 36.5469 29.0562 35.875L29.0641 35.8359H28.3961L28.3844 35.8711C28.2672 36.2188 27.9039 36.4766 27.3883 36.4766C26.6656 36.4766 26.2047 35.9883 26.1891 35.1523H29.1148V34.9023C29.1148 33.6836 28.4391 32.8594 27.3297 32.8594C26.2203 32.8594 25.5016 33.7227 25.5016 34.9805V34.9844C25.5016 36.2617 26.2047 37.0781 27.3727 37.0781ZM27.3258 33.4609C27.9195 33.4609 28.357 33.832 28.4234 34.6211H26.2008C26.275 33.8633 26.7359 33.4609 27.3258 33.4609ZM31.5438 37.0781C32.45 37.0781 33.1219 36.5781 33.1219 35.8672V35.8633C33.1219 35.2852 32.825 34.9609 32.0047 34.7617L31.3602 34.6055C30.9109 34.4961 30.7273 34.3047 30.7273 34.0273V34.0234C30.7273 33.6641 31.032 33.4258 31.5242 33.4258C32.0281 33.4258 32.3289 33.6875 32.3836 34.082L32.3875 34.1094H33.0359L33.032 34.0586C32.9813 33.3789 32.4148 32.8594 31.5242 32.8594C30.6453 32.8594 30.032 33.3555 30.032 34.0547V34.0586C30.032 34.6445 30.4031 35 31.1688 35.1836L31.8133 35.3398C32.2742 35.4531 32.4266 35.6172 32.4266 35.9102V35.9141C32.4266 36.2812 32.0984 36.5117 31.5477 36.5117C30.993 36.5117 30.6922 36.2734 30.6102 35.8672L30.6023 35.8281H29.9227L29.9266 35.8633C30.0086 36.5898 30.5867 37.0781 31.5438 37.0781ZM35.4492 37.0781C35.582 37.0781 35.7266 37.0625 35.8125 37.0508V36.5C35.7539 36.5039 35.6758 36.5156 35.5938 36.5156C35.2305 36.5156 35.0391 36.3945 35.0391 35.9609V33.5H35.8125V32.9375H35.0391V31.8398H34.3359V32.9375H33.7422V33.5H34.3359V35.9648C34.3359 36.7422 34.7031 37.0781 35.4492 37.0781ZM38.3977 37.0781C39.2844 37.0781 39.9484 36.5469 40.0812 35.875L40.0891 35.8359H39.4211L39.4094 35.8711C39.2922 36.2188 38.9289 36.4766 38.4133 36.4766C37.6906 36.4766 37.2297 35.9883 37.2141 35.1523H40.1398V34.9023C40.1398 33.6836 39.4641 32.8594 38.3547 32.8594C37.2453 32.8594 36.5266 33.7227 36.5266 34.9805V34.9844C36.5266 36.2617 37.2297 37.0781 38.3977 37.0781ZM38.3508 33.4609C38.9445 33.4609 39.382 33.832 39.4484 34.6211H37.2258C37.3 33.8633 37.7609 33.4609 38.3508 33.4609ZM42.6547 37.0781C43.2367 37.0781 43.6898 36.7852 43.9438 36.3125H43.9594V37H44.6391V31.3633H43.9594V33.6172H43.9438C43.6898 33.1484 43.2172 32.8594 42.643 32.8594C41.6234 32.8594 40.9281 33.6836 40.9281 34.9648V34.9688C40.9281 36.25 41.6156 37.0781 42.6547 37.0781ZM42.7875 36.4766C42.0688 36.4766 41.6234 35.9023 41.6234 34.9688V34.9648C41.6234 34.0391 42.0688 33.4609 42.7875 33.4609C43.4711 33.4609 43.9633 34.0586 43.9633 34.9648V34.9688C43.9633 35.8789 43.475 36.4766 42.7875 36.4766ZM49.2391 37.0781C50.1453 37.0781 50.8172 36.5781 50.8172 35.8672V35.8633C50.8172 35.2852 50.5203 34.9609 49.7 34.7617L49.0555 34.6055C48.6063 34.4961 48.4227 34.3047 48.4227 34.0273V34.0234C48.4227 33.6641 48.7273 33.4258 49.2195 33.4258C49.7234 33.4258 50.0242 33.6875 50.0789 34.082L50.0828 34.1094H50.7313L50.7273 34.0586C50.6766 33.3789 50.1102 32.8594 49.2195 32.8594C48.3406 32.8594 47.7273 33.3555 47.7273 34.0547V34.0586C47.7273 34.6445 48.0984 35 48.8641 35.1836L49.5086 35.3398C49.9695 35.4531 50.1219 35.6172 50.1219 35.9102V35.9141C50.1219 36.2812 49.7938 36.5117 49.243 36.5117C48.6883 36.5117 48.3875 36.2734 48.3055 35.8672L48.2977 35.8281H47.618L47.6219 35.8633C47.7039 36.5898 48.282 37.0781 49.2391 37.0781ZM51.8242 38.3672H52.5039V36.3203H52.5195C52.7734 36.7891 53.2461 37.0781 53.8203 37.0781C54.8398 37.0781 55.5352 36.2539 55.5352 34.9727V34.9688C55.5352 33.6875 54.8477 32.8594 53.8086 32.8594C53.2266 32.8594 52.7734 33.1523 52.5195 33.625H52.5039V32.9375H51.8242V38.3672ZM53.6758 36.4766C52.9922 36.4766 52.5 35.8789 52.5 34.9727V34.9688C52.5 34.0586 52.9883 33.4609 53.6758 33.4609C54.3945 33.4609 54.8398 34.0352 54.8398 34.9688V34.9727C54.8398 35.8984 54.3945 36.4766 53.6758 36.4766ZM56.5578 37H57.2375V31.3633H56.5578V37ZM58.8383 32.25C59.0766 32.25 59.2641 32.0586 59.2641 31.8242C59.2641 31.5859 59.0766 31.3984 58.8383 31.3984C58.6039 31.3984 58.4125 31.5859 58.4125 31.8242C58.4125 32.0586 58.6039 32.25 58.8383 32.25ZM58.4984 37H59.1781V32.9375H58.4984V37ZM61.7242 37.0781C61.857 37.0781 62.0016 37.0625 62.0875 37.0508V36.5C62.0289 36.5039 61.9508 36.5156 61.8688 36.5156C61.5055 36.5156 61.3141 36.3945 61.3141 35.9609V33.5H62.0875V32.9375H61.3141V31.8398H60.6109V32.9375H60.0172V33.5H60.6109V35.9648C60.6109 36.7422 60.9781 37.0781 61.7242 37.0781Z" fill="#6B7280"/>
<path d="M108.816 28.5H109.996V23.8359H111.629V22.8633H107.188V23.8359H108.816V28.5ZM113.484 28.5859C114.749 28.5859 115.558 27.7734 115.558 26.4062V26.3984C115.558 25.043 114.734 24.2266 113.48 24.2266C112.23 24.2266 111.409 25.0508 111.409 26.3984V26.4062C111.409 27.7695 112.21 28.5859 113.484 28.5859ZM113.488 27.6914C112.925 27.6914 112.57 27.2266 112.57 26.4062V26.3984C112.57 25.5898 112.929 25.1211 113.48 25.1211C114.034 25.1211 114.398 25.5898 114.398 26.3984V26.4062C114.398 27.2227 114.042 27.6914 113.488 27.6914ZM117.998 28.5859C118.604 28.5859 119.065 28.2812 119.288 27.7852H119.311V28.5H120.452V22.8633H119.311V25.0391H119.288C119.061 24.5312 118.592 24.2266 117.998 24.2266C116.944 24.2266 116.295 25.0391 116.295 26.4023V26.4062C116.295 27.7656 116.944 28.5859 117.998 28.5859ZM118.381 27.6406C117.811 27.6406 117.455 27.168 117.455 26.4062V26.4023C117.455 25.6367 117.815 25.1719 118.381 25.1719C118.932 25.1719 119.315 25.6484 119.315 26.4023V26.4062C119.315 27.1641 118.936 27.6406 118.381 27.6406ZM122.759 28.5664C123.31 28.5664 123.755 28.3047 123.994 27.875H124.017V28.5H125.158V25.6289C125.158 24.7852 124.459 24.2266 123.377 24.2266C122.271 24.2266 121.607 24.7812 121.545 25.5547L121.541 25.6016H122.584L122.591 25.5664C122.646 25.2969 122.904 25.0977 123.33 25.0977C123.775 25.0977 124.017 25.3281 124.017 25.6992V25.957L122.982 26.0195C121.943 26.0859 121.353 26.5312 121.353 27.293V27.3008C121.353 28.0391 121.92 28.5664 122.759 28.5664ZM122.482 27.2422V27.2344C122.482 26.9375 122.712 26.75 123.154 26.7227L124.017 26.668V26.9688C124.017 27.4062 123.642 27.7344 123.13 27.7344C122.736 27.7344 122.482 27.5508 122.482 27.2422ZM126.829 29.8789C127.759 29.8789 128.321 29.5625 128.649 28.5742L130.087 24.3125H128.884L127.997 27.5859H127.966L127.083 24.3125H125.829L127.309 28.5L127.259 28.6367C127.157 28.9219 126.97 29.0195 126.63 29.0195C126.462 29.0195 126.329 28.9961 126.247 28.9805V29.8281C126.38 29.8516 126.606 29.8789 126.829 29.8789Z" fill="#2FA2B9"/>
</g>
</g>
<defs>
<filter id="filter0_d_9003_1186" x="-30" y="-15" width="192" height="101" filterUnits="userSpaceOnUse" color-interpolation-filters="sRGB">
<feFlood flood-opacity="0" result="BackgroundImageFix"/>
<feColorMatrix in="SourceAlpha" type="matrix" values="0 0 0 0 0 0 0 0 0 0 0 0 0 0 0 0 0 0 127 0" result="hardAlpha"/>
<feOffset dx="-5" dy="10"/>
<feGaussianBlur stdDeviation="12.5"/>
<feComposite in2="hardAlpha" operator="out"/>
<feColorMatrix type="matrix" values="0 0 0 0 0.611765 0 0 0 0 0.639216 0 0 0 0 0.686275 0 0 0 0.08 0"/>
<feBlend mode="normal" in2="BackgroundImageFix" result="effect1_dropShadow_9003_1186"/>
<feBlend mode="normal" in="SourceGraphic" in2="effect1_dropShadow_9003_1186" result="shape"/>
</filter>
<clipPath id="clip0_9003_1186">
<rect width="142" height="51" fill="white"/>
</clipPath>
</defs>
</svg>
