<svg width="54" height="54" viewBox="0 0 54 54" fill="none" xmlns="http://www.w3.org/2000/svg">
<g clip-path="url(#clip0_9004_1190)">
<g filter="url(#filter0_d_9004_1190)">
<rect x="0.418457" y="5.49356" width="48.1544" height="48.1544" rx="24.0772" transform="rotate(-6.0288 0.418457 5.49356)" fill="white"/>
</g>
<path d="M16.1829 21.0342C16.1596 20.8137 16.2249 20.593 16.3643 20.4206C16.5038 20.2482 16.706 20.1383 16.9265 20.115C19.8785 19.8032 22.6447 18.4541 25.2393 16.0426C25.3718 15.9194 25.5407 15.8426 25.7206 15.8236C25.9005 15.8046 26.0817 15.8445 26.237 15.9372C29.2781 17.7535 32.2651 18.4951 35.2171 18.1833C35.4376 18.16 35.6583 18.2253 35.8307 18.3647C36.0031 18.5042 36.113 18.7064 36.1363 18.9269L36.7509 24.7466C36.7721 24.9473 36.7886 25.1461 36.8007 25.3455C36.2021 24.856 35.4715 24.5553 34.7016 24.4819C33.9318 24.4084 33.1575 24.5653 32.4771 24.9328C31.7966 25.3003 31.2407 25.8617 30.88 26.5457C30.5193 27.2297 30.3699 28.0056 30.451 28.7746L30.4569 28.83C29.8444 29.0239 29.3177 29.4235 28.966 29.961C28.6143 30.4986 28.4591 31.1412 28.5267 31.7801L29.112 37.3227C29.1179 37.3781 29.1246 37.4312 29.1336 37.484C28.8819 37.6272 28.6254 37.7664 28.3597 37.9043C28.1722 38.0018 27.9548 38.0248 27.7511 37.9685C21.0923 36.1252 17.3829 32.3965 16.7976 26.8539L16.1829 21.0342ZM31.6766 29.7661L31.5595 28.6575C31.4819 27.9225 31.6994 27.1868 32.1643 26.6122C32.6291 26.0376 33.3032 25.6712 34.0382 25.5936C34.7731 25.5159 35.5089 25.7335 36.0835 26.1983C36.6581 26.6631 37.0245 27.3372 37.1021 28.0722L37.2192 29.1807L37.7735 29.1222C38.2145 29.0756 38.6559 29.2061 39.0007 29.485C39.3454 29.7639 39.5653 30.1683 39.6119 30.6093L40.1972 36.1519C40.2438 36.5929 40.1133 37.0344 39.8344 37.3791C39.5555 37.7239 39.1511 37.9437 38.7101 37.9903L32.0589 38.6928C31.6179 38.7393 31.1765 38.6088 30.8317 38.3299C30.487 38.051 30.2671 37.6466 30.2206 37.2056L29.6352 31.663C29.5886 31.222 29.7191 30.7806 29.998 30.4358C30.2769 30.091 30.6814 29.8712 31.1224 29.8246L31.6766 29.7661ZM33.2223 28.4819L33.3394 29.5905L35.5564 29.3563L35.4394 28.2478C35.4083 27.9538 35.2617 27.6842 35.0319 27.4982C34.8021 27.3123 34.5078 27.2253 34.2138 27.2563C33.9198 27.2874 33.6501 27.434 33.4642 27.6638C33.2783 27.8936 33.1913 28.1879 33.2223 28.4819ZM36.0247 33.7904C35.9937 33.4964 35.8471 33.2268 35.6173 33.0408C35.3874 32.8549 35.0931 32.7679 34.7991 32.7989C34.5051 32.83 34.2355 32.9766 34.0496 33.2064C33.8636 33.4362 33.7766 33.7305 33.8077 34.0245C33.8387 34.3185 33.9853 34.5882 34.2151 34.7741C34.445 34.96 34.7393 35.047 35.0333 35.016C35.3273 34.9849 35.5969 34.8384 35.7828 34.6085C35.9688 34.3787 36.0558 34.0844 36.0247 33.7904Z" fill="#4ADE80"/>
</g>
<defs>
<filter id="filter0_d_9004_1190" x="-27.1879" y="-12.1703" width="98.1583" height="98.1583" filterUnits="userSpaceOnUse" color-interpolation-filters="sRGB">
<feFlood flood-opacity="0" result="BackgroundImageFix"/>
<feColorMatrix in="SourceAlpha" type="matrix" values="0 0 0 0 0 0 0 0 0 0 0 0 0 0 0 0 0 0 127 0" result="hardAlpha"/>
<feOffset dx="-5" dy="10"/>
<feGaussianBlur stdDeviation="12.5"/>
<feComposite in2="hardAlpha" operator="out"/>
<feColorMatrix type="matrix" values="0 0 0 0 0.611765 0 0 0 0 0.639216 0 0 0 0 0.686275 0 0 0 0.16 0"/>
<feBlend mode="normal" in2="BackgroundImageFix" result="effect1_dropShadow_9004_1190"/>
<feBlend mode="normal" in="SourceGraphic" in2="effect1_dropShadow_9004_1190" result="shape"/>
</filter>
<clipPath id="clip0_9004_1190">
<rect width="52.9456" height="52.9456" fill="white" transform="translate(0.418457 0.435974)"/>
</clipPath>
</defs>
</svg>
