<svg width="160" height="98" viewBox="0 0 160 98" fill="none" xmlns="http://www.w3.org/2000/svg">
<g clip-path="url(#clip0_9003_1184)">
<g filter="url(#filter0_d_9003_1184)">
<rect width="160" height="97.6744" rx="11.1628" fill="white"/>
</g>
<path d="M14.2051 21.1628H15.5768V15.7395H17.4755V14.6085H12.311V15.7395H14.2051V21.1628ZM18.4313 21.1628H19.7576V18.3739C19.7576 17.738 20.1346 17.2929 20.7206 17.2929C21.3247 17.2929 21.6608 17.6971 21.6608 18.3784V21.1628H22.9871V18.1059C22.9871 16.9295 22.333 16.1937 21.2792 16.1937C20.548 16.1937 20.0347 16.5298 19.7849 17.1339H19.7576V14.6085H18.4313V21.1628ZM24.8105 15.6668C25.2102 15.6668 25.5191 15.3534 25.5191 14.9764C25.5191 14.5994 25.2102 14.286 24.8105 14.286C24.4108 14.286 24.1019 14.5994 24.1019 14.9764C24.1019 15.3534 24.4108 15.6668 24.8105 15.6668ZM24.1473 21.1628H25.4736V16.2936H24.1473V21.1628ZM28.6461 21.2627C29.8997 21.2627 30.7763 20.6359 30.7763 19.682V19.6775C30.7763 18.9598 30.3585 18.5601 29.341 18.3466L28.5143 18.1695C28.0238 18.065 27.8557 17.9015 27.8557 17.6517V17.6472C27.8557 17.3337 28.1419 17.1294 28.6006 17.1294C29.0912 17.1294 29.3774 17.3928 29.4228 17.7425L29.4273 17.7789H30.6492V17.7335C30.6174 16.8795 29.8952 16.1937 28.6006 16.1937C27.3606 16.1937 26.5612 16.7932 26.5612 17.7198V17.7244C26.5612 18.4511 27.0381 18.9235 27.9829 19.1234L28.8096 19.296C29.2865 19.4004 29.45 19.5503 29.45 19.8092V19.8138C29.45 20.1272 29.1457 20.3225 28.6461 20.3225C28.1146 20.3225 27.8285 20.0999 27.7422 19.7184L27.7331 19.6775H26.4386L26.4431 19.7184C26.5476 20.6404 27.2971 21.2627 28.6461 21.2627ZM33.8327 21.1628H35.159V18.224C35.159 17.6744 35.4996 17.2929 36.0038 17.2929C36.4944 17.2929 36.7896 17.6017 36.7896 18.1241V21.1628H38.0659V18.2013C38.0659 17.6608 38.3975 17.2929 38.9017 17.2929C39.415 17.2929 39.6966 17.6017 39.6966 18.165V21.1628H41.0229V17.8334C41.0229 16.8523 40.3824 16.1937 39.4286 16.1937C38.7155 16.1937 38.1341 16.5843 37.9161 17.1975H37.8888C37.7253 16.557 37.2302 16.1937 36.5489 16.1937C35.8948 16.1937 35.3861 16.557 35.1862 17.1112H35.159V16.2936H33.8327V21.1628ZM44.377 21.2627C45.8486 21.2627 46.7889 20.3179 46.7889 18.7282V18.7191C46.7889 17.143 45.8305 16.1937 44.3724 16.1937C42.919 16.1937 41.9651 17.1521 41.9651 18.7191V18.7282C41.9651 20.3134 42.8963 21.2627 44.377 21.2627ZM44.3815 20.2226C43.7275 20.2226 43.3141 19.682 43.3141 18.7282V18.7191C43.3141 17.7789 43.732 17.2338 44.3724 17.2338C45.0174 17.2338 45.4399 17.7789 45.4399 18.7191V18.7282C45.4399 19.6775 45.0265 20.2226 44.3815 20.2226ZM47.7538 21.1628H49.0801V18.3648C49.0801 17.7289 49.4571 17.2929 50.0521 17.2929C50.6472 17.2929 50.9469 17.6562 50.9469 18.2921V21.1628H52.2732V18.0196C52.2732 16.8795 51.6646 16.1937 50.5927 16.1937C49.8568 16.1937 49.3572 16.5343 49.1074 17.093H49.0801V16.2936H47.7538V21.1628ZM55.3276 21.2627C55.6046 21.2627 55.8181 21.2355 55.968 21.2127V20.2407C55.8863 20.2498 55.8 20.2634 55.6819 20.2634C55.2822 20.2634 55.0778 20.109 55.0778 19.6548V17.2929H55.968V16.2936H55.0778V15.1036H53.7378V16.2936H53.061V17.2929H53.7378V19.8001C53.7378 20.8448 54.2465 21.2627 55.3276 21.2627ZM57.0102 21.1628H58.3365V18.3739C58.3365 17.738 58.7135 17.2929 59.2994 17.2929C59.9035 17.2929 60.2396 17.6971 60.2396 18.3784V21.1628H61.5659V18.1059C61.5659 16.9295 60.9119 16.1937 59.8581 16.1937C59.1268 16.1937 58.6135 16.5298 58.3637 17.1339H58.3365V14.6085H57.0102V21.1628Z" fill="#111827"/>
<line x1="12.5581" y1="30.6977" x2="12.5581" y2="86.5117" stroke="#F3F4F6" stroke-width="0.930233"/>
<line x1="12.093" y1="86.0465" x2="150.698" y2="86.0465" stroke="#F3F4F6" stroke-width="0.930233"/>
<line x1="12.093" y1="63.7209" x2="150.698" y2="63.7209" stroke="#F3F4F6" stroke-width="0.930233"/>
<line x1="12.093" y1="41.3954" x2="150.698" y2="41.3954" stroke="#F3F4F6" stroke-width="0.930233"/>
<path d="M13.0233 85.1163C24.1861 81.8605 36.1861 60.4651 46.9768 60.4651C60.4652 60.4651 69.3024 76.7442 82.3256 76.7442C97.6745 76.7442 102.791 37.6744 118.14 37.6744C132.558 37.6744 139.07 53.4884 149.768 53.4884" stroke="#2FA2B9" stroke-width="1.39535" stroke-linecap="round"/>
<rect x="29.7675" y="38.1395" width="36.2791" height="14.8837" rx="3.72093" fill="#111827"/>
<path d="M36.2736 47.1898H36.5007V46.8105C37.1593 46.7742 37.6249 46.4358 37.6249 45.8612V45.8567C37.6249 45.3638 37.3114 45.1049 36.6801 44.9709L36.5007 44.9346V44.1465C36.7709 44.1783 36.9367 44.3146 36.9708 44.5394L36.9753 44.5599H37.5817L37.5772 44.5213C37.5317 43.9966 37.1298 43.6742 36.5007 43.6355V43.254H36.2736V43.6333C35.6263 43.6651 35.188 44.0216 35.188 44.5531V44.5576C35.188 45.0391 35.4969 45.3207 36.1032 45.4479L36.2736 45.4842V46.2972C35.9443 46.2677 35.7898 46.1178 35.7512 45.9089L35.7467 45.8839H35.1403L35.1426 45.918C35.1789 46.454 35.6218 46.7764 36.2736 46.8105V47.1898ZM35.8216 44.5076V44.5031C35.8216 44.3214 35.9738 44.1715 36.2736 44.1443V44.8869C35.9465 44.8142 35.8216 44.6916 35.8216 44.5076ZM36.9912 45.9202V45.9248C36.9912 46.1292 36.8413 46.2768 36.5007 46.3018V45.5319C36.8777 45.6137 36.9912 45.7249 36.9912 45.9202ZM38.4058 46.8605H40.7882V46.3154H39.3029V46.2882L39.9888 45.6613C40.5543 45.1413 40.7428 44.8824 40.7428 44.4849V44.4804C40.7428 43.9217 40.2658 43.5265 39.5732 43.5265C38.8805 43.5265 38.3672 43.9603 38.3672 44.578V44.5962H39.0031L39.0054 44.5758C39.0145 44.2805 39.2416 44.0602 39.5777 44.0602C39.8684 44.0602 40.0728 44.251 40.0751 44.519V44.5235C40.0751 44.7506 39.9865 44.9119 39.5641 45.3071L38.4058 46.3904V46.8605ZM41.3489 47.5441H41.8076L42.1415 46.2882H41.5147L41.3489 47.5441ZM44.1193 46.9173C44.9505 46.9173 45.4547 46.2655 45.4547 45.223V45.2185C45.4547 44.1761 44.9505 43.5265 44.1193 43.5265C43.2881 43.5265 42.7839 44.1761 42.7839 45.2185V45.223C42.7839 46.2655 43.2881 46.9173 44.1193 46.9173ZM44.1193 46.3677C43.7105 46.3677 43.4766 45.943 43.4766 45.223V45.2185C43.4766 44.4986 43.7105 44.0761 44.1193 44.0761C44.5281 44.0761 44.762 44.4986 44.762 45.2185V45.223C44.762 45.943 44.5281 46.3677 44.1193 46.3677ZM47.4507 46.9173C48.2819 46.9173 48.7861 46.2655 48.7861 45.223V45.2185C48.7861 44.1761 48.2819 43.5265 47.4507 43.5265C46.6195 43.5265 46.1153 44.1761 46.1153 45.2185V45.223C46.1153 46.2655 46.6195 46.9173 47.4507 46.9173ZM47.4507 46.3677C47.0419 46.3677 46.808 45.943 46.808 45.223V45.2185C46.808 44.4986 47.0419 44.0761 47.4507 44.0761C47.8595 44.0761 48.0934 44.4986 48.0934 45.2185V45.223C48.0934 45.943 47.8595 46.3677 47.4507 46.3677ZM50.7821 46.9173C51.6133 46.9173 52.1175 46.2655 52.1175 45.223V45.2185C52.1175 44.1761 51.6133 43.5265 50.7821 43.5265C49.9509 43.5265 49.4467 44.1761 49.4467 45.2185V45.223C49.4467 46.2655 49.9509 46.9173 50.7821 46.9173ZM50.7821 46.3677C50.3733 46.3677 50.1394 45.943 50.1394 45.223V45.2185C50.1394 44.4986 50.3733 44.0761 50.7821 44.0761C51.1909 44.0761 51.4248 44.4986 51.4248 45.2185V45.223C51.4248 45.943 51.1909 46.3677 50.7821 46.3677ZM53.0347 46.8991C53.2391 46.8991 53.4027 46.7356 53.4027 46.5312C53.4027 46.3245 53.2391 46.1633 53.0347 46.1633C52.8281 46.1633 52.6668 46.3245 52.6668 46.5312C52.6668 46.7356 52.8281 46.8991 53.0347 46.8991ZM55.3328 46.9173C56.164 46.9173 56.6682 46.2655 56.6682 45.223V45.2185C56.6682 44.1761 56.164 43.5265 55.3328 43.5265C54.5016 43.5265 53.9974 44.1761 53.9974 45.2185V45.223C53.9974 46.2655 54.5016 46.9173 55.3328 46.9173ZM55.3328 46.3677C54.924 46.3677 54.6901 45.943 54.6901 45.223V45.2185C54.6901 44.4986 54.924 44.0761 55.3328 44.0761C55.7416 44.0761 55.9755 44.4986 55.9755 45.2185V45.223C55.9755 45.943 55.7416 46.3677 55.3328 46.3677ZM58.6642 46.9173C59.4954 46.9173 59.9996 46.2655 59.9996 45.223V45.2185C59.9996 44.1761 59.4954 43.5265 58.6642 43.5265C57.833 43.5265 57.3288 44.1761 57.3288 45.2185V45.223C57.3288 46.2655 57.833 46.9173 58.6642 46.9173ZM58.6642 46.3677C58.2554 46.3677 58.0215 45.943 58.0215 45.223V45.2185C58.0215 44.4986 58.2554 44.0761 58.6642 44.0761C59.073 44.0761 59.3069 44.4986 59.3069 45.2185V45.223C59.3069 45.943 59.073 46.3677 58.6642 46.3677Z" fill="white"/>
<circle cx="47.4419" cy="60.4651" r="2.32558" fill="white" stroke="#2FA2B9" stroke-width="0.930233"/>
</g>
<defs>
<filter id="filter0_d_9003_1184" x="-40" y="-10" width="210" height="147.674" filterUnits="userSpaceOnUse" color-interpolation-filters="sRGB">
<feFlood flood-opacity="0" result="BackgroundImageFix"/>
<feColorMatrix in="SourceAlpha" type="matrix" values="0 0 0 0 0 0 0 0 0 0 0 0 0 0 0 0 0 0 127 0" result="hardAlpha"/>
<feOffset dx="-15" dy="15"/>
<feGaussianBlur stdDeviation="12.5"/>
<feComposite in2="hardAlpha" operator="out"/>
<feColorMatrix type="matrix" values="0 0 0 0 0.419608 0 0 0 0 0.447059 0 0 0 0 0.501961 0 0 0 0.06 0"/>
<feBlend mode="normal" in2="BackgroundImageFix" result="effect1_dropShadow_9003_1184"/>
<feBlend mode="normal" in="SourceGraphic" in2="effect1_dropShadow_9003_1184" result="shape"/>
</filter>
<clipPath id="clip0_9003_1184">
<rect width="160" height="97.6744" fill="white"/>
</clipPath>
</defs>
</svg>
